<svg xmlns="http://www.w3.org/2000/svg" xmlns:xlink="http://www.w3.org/1999/xlink" width="17" height="17" x="0" y="0" enable-background="new -.354 -.908 17 17" version="1.1" viewBox="-0.354 -0.908 17 17" xml:space="preserve"><linearGradient id="SVGID_1_" x1=".646" x2="18.645" y1="7.984" y2="7.984" gradientUnits="userSpaceOnUse"><stop offset="0" style="stop-color:#243446"/><stop offset="1" style="stop-color:#506167"/></linearGradient><circle cx="7.984" cy="7.983" r="7.484" fill="url(#SVGID_1_)" stroke="#919B9E"/><path fill="#EDF1F2" d="M5.11,4.067v7.95H4.018V6.368h-1.83V5.574c0.506-0.011,1.795-0.046,2.083-1.507H5.11z"/><path fill="#EDF1F2" d="M10.596,12.098c-0.656,0-1.634-0.149-2.313-1.254c-0.506-0.84-0.586-1.921-0.586-2.784	c0-0.518,0.023-1.013,0.115-1.495c0.356-1.956,1.588-2.681,2.864-2.681c0.449,0,0.897,0.092,1.289,0.287	c1.173,0.633,1.553,2.036,1.553,3.739C13.518,8.67,13.518,12.098,10.596,12.098z M12.401,7.864c0-0.852-0.046-3.095-1.76-3.095	c-0.311,0-0.621,0.092-0.863,0.253C9.019,5.54,8.812,6.69,8.812,8.025c0,0.84,0.047,3.164,1.807,3.164	C12.24,11.189,12.401,9.245,12.401,7.864z"/></svg>