<svg xmlns="http://www.w3.org/2000/svg" xmlns:xlink="http://www.w3.org/1999/xlink" width="17" height="17" x="0" y="0" enable-background="new -.232 -.208 17 17" version="1.1" viewBox="-0.232 -0.208 17 17" xml:space="preserve"><linearGradient id="SVGID_1_" x1=".768" x2="18.768" y1="7.983" y2="7.983" gradientUnits="userSpaceOnUse"><stop offset="0" style="stop-color:#243446"/><stop offset="1" style="stop-color:#506167"/></linearGradient><circle cx="7.985" cy="7.983" r="7.485" fill="url(#SVGID_1_)" stroke="#919B9E"/><path fill="#EDF1F2" d="M6.322,10.106c0.023,0.207,0.058,0.494,0.276,0.794c0.357,0.506,0.863,0.563,1.197,0.563	c1.519,0,1.922-1.668,1.955-3.025C9.566,8.702,8.991,9.531,7.657,9.531c-1.473,0-2.554-1.024-2.554-2.646	c0-1.53,1.059-2.704,2.727-2.704c1.784,0,2.428,1.323,2.635,1.83c0.265,0.701,0.322,1.473,0.322,2.22	c0,0.357-0.022,0.714-0.069,1.07c-0.127,0.852-0.438,1.668-0.943,2.221c-0.725,0.782-1.6,0.852-2.071,0.852	c-0.426,0-1.392-0.035-2.048-0.989c-0.333-0.495-0.379-0.979-0.403-1.197L6.322,10.106z M7.807,8.576c0.886,0,1.68-0.599,1.68-1.668	c0-0.967-0.656-1.784-1.68-1.784c-0.898,0-1.623,0.645-1.623,1.703C6.184,7.598,6.587,8.576,7.807,8.576z"/></svg>